# xmcd CD database file generated by freedbAccess_ocx
#
# Track frame offsets:
#       150
#       17469
#       37499
#       57819
#       78420
#       95743
#       118473
#       139829
#       153991
#       172492
#       189962
#       207656
#       228510
#       250295
#       268180
#       285103
#
# Disc length: 4043 seconds
#
# Revision: 0
# Processed by: cddbd v1.4PL0 Copyright (c) Steve Scherf et al.
# Submitted via: CDnGo 2.00
#
DISCID=f00fc910
DTITLE=Aaliyah - I Care 4 U
DYEAR=2003
DGENRE=Rhythmic Soul
TTITLE0=Back And Forth
TTITLE1=Are You That Somebody
TTITLE2=Once In A Million
TTITLE3=I Care 4 U
TTITLE4=More Than A Woman
TTITLE5=Don't Know What To Tell You
TTITLE6=Try Again
TTITLE7=All I Need
TTITLE8=Miss You
TTITLE9=Don't Worry
TTITLE10=Come Over
TTITLE11=Erica Kane
TTITLE12=At Your Best
TTITLE13=Got To Give It Up (New Remix)
TTITLE14=We Need A Resolution
TTITLE15=Rock The Boat
EXTD=
EXTT0=
EXTT1=
EXTT2=
EXTT3=
EXTT4=
EXTT5=
EXTT6=
EXTT7=
EXTT8=
EXTT9=
EXTT10=
EXTT11=
EXTT12=
EXTT13=
EXTT14=
EXTT15=
PLAYORDER=
